<svg xmlns="http://www.w3.org/2000/svg" width="512" height="512" style=""><rect id="backgroundrect" width="100%" height="100%" x="0" y="0" fill="none" stroke="none"/><!--! Font Awesome Pro 6.3.0 by @fontawesome - https://fontawesome.com License - https://fontawesome.com/license (Commercial License) Copyright 2023 Fonticons, Inc. --><g class="currentLayer" style=""><title>Layer 1</title><path d="M39.99998986721039,300.1244020462036 c-22.1,0 -40,-16.46950252652168 -40,-36.80335760116577 s17.9,-36.80335760116577 40,-36.80335760116577 l180.2,0 c-7.6,-7.820713490247726 -12.2,-18.12565361857414 -12.2,-29.442686080932617 c0,-23.278123682737352 19.5,-42.32386124134064 44.3,-44.07202072739601 c-7.7,-7.820713490247726 -12.3,-18.21766201257706 -12.3,-29.534694474935534 c0,-24.382224410772324 21.5,-44.164029121398926 48,-44.164029121398926 l32,0 l64,0 c70.7,0 128,52.72080976366996 128,117.77074432373047 l0,104.06149361729621 c0,36.987374389171606 -16,72.50261447429656 -44.4,98.72500676512718 C444.7999898672104,420.8394149780273 413.89998986721037,432.6164894104004 381.6999898672104,432.6164894104004 L335.9999898672104,432.6164894104004 c-21.3,0 -39.3,-12.789166766405106 -45.6,-30.45477841496468 l74.5,-21.805989378690718 c8.4,-2.48422663807869 13.1,-10.764982098340987 10.4,-18.493687194585803 s-11.7,-12.05309961438179 -20.1,-9.568872976303101 L287.9999898672104,371.9829577624798 l0,-0.09200839400291447 L83.99998986721039,430.9603383183479 C62.899989867210365,437.0328923225403 40.49998986721039,426.26791022419934 33.7999898672104,406.85413908958435 s5.1,-40.02365139126778 26.2,-46.18821378946305 L269.4999898672104,300.1244020462036 L39.99998986721039,300.1244020462036 z" id="svg_1" class="" transform="rotate(90, 256, 255.979)"/></g></svg>